<svg xmlns="http://www.w3.org/2000/svg" width="335.054" height="42.773" viewBox="0 0 335.054 42.773">
  <g id="All_icons_v5" data-name="All icons v5" transform="translate(370.874 -403.815)">
    <g id="All_icons_v4" data-name="All icons v4" opacity="0.402">
      <g id="All_icons_v3" data-name="All icons v3" transform="translate(-370.374 404.162)">
        <g id="All_icons_v2" data-name="All icons v2" transform="translate(0)">
          <g id="portfolio_icon" data-name="portfolio icon" transform="translate(0)">
            <line id="Line_3" data-name="Line 3" y2="10.168" transform="matrix(0.017, 1, -1, 0.017, 10.327, 9.351)" fill="#fff" stroke="#707070" stroke-width="1"/>
            <line id="Line_1" data-name="Line 1" x1="17.916" transform="matrix(0.017, 1, -1, 0.017, 0, 0.33)" fill="#fff" stroke="#707070" stroke-width="1"/>
            <line id="Line_2" data-name="Line 2" y1="10.168" transform="matrix(0.017, 1, -1, 0.017, 10.167, 0.152)" fill="#fff" stroke="#707070" stroke-width="1"/>
            <path id="Path_1" data-name="Path 1" d="M8.716,8.716,0,0" transform="matrix(0.017, 1, -1, 0.017, 19.042, 9.199)" stroke="#707070" stroke-width="1"/>
            <path id="Path_2" data-name="Path 2" d="M9.2,0,0,8.232" transform="matrix(0.017, 1, -1, 0.017, 18.881, 0)" stroke="#707070" stroke-width="1"/>
            <path id="Path_4" data-name="Path 4" d="M0,0" transform="matrix(-0.883, 0.469, -0.469, -0.883, 15.065, 10.935)" stroke="#707070" stroke-width="1"/>
          </g>
          <g id="portfolio_icon-2" data-name="portfolio icon" transform="translate(21)">
            <line id="Line_3-2" data-name="Line 3" y2="10.168" transform="matrix(0.017, 1, -1, 0.017, 10.327, 9.351)" fill="#fff" stroke="#707070" stroke-width="1"/>
            <line id="Line_1-2" data-name="Line 1" x1="17.916" transform="matrix(0.017, 1, -1, 0.017, 0, 0.33)" fill="#fff" stroke="#707070" stroke-width="1"/>
            <line id="Line_2-2" data-name="Line 2" y1="10.168" transform="matrix(0.017, 1, -1, 0.017, 10.167, 0.152)" fill="#fff" stroke="#707070" stroke-width="1"/>
            <path id="Path_1-2" data-name="Path 1" d="M8.716,8.716,0,0" transform="matrix(0.017, 1, -1, 0.017, 19.042, 9.199)" stroke="#707070" stroke-width="1"/>
            <path id="Path_2-2" data-name="Path 2" d="M9.2,0,0,8.232" transform="matrix(0.017, 1, -1, 0.017, 18.881, 0)" stroke="#707070" stroke-width="1"/>
            <path id="Path_4-2" data-name="Path 4" d="M0,0" transform="matrix(-0.883, 0.469, -0.469, -0.883, 15.065, 10.935)" stroke="#707070" stroke-width="1"/>
          </g>
          <g id="portfolio_icon-3" data-name="portfolio icon" transform="translate(42)">
            <line id="Line_3-3" data-name="Line 3" y2="10.168" transform="matrix(0.017, 1, -1, 0.017, 10.327, 9.351)" fill="#fff" stroke="#707070" stroke-width="1"/>
            <line id="Line_1-3" data-name="Line 1" x1="17.916" transform="matrix(0.017, 1, -1, 0.017, 0, 0.33)" fill="#fff" stroke="#707070" stroke-width="1"/>
            <line id="Line_2-3" data-name="Line 2" y1="10.168" transform="matrix(0.017, 1, -1, 0.017, 10.167, 0.152)" fill="#fff" stroke="#707070" stroke-width="1"/>
            <path id="Path_1-3" data-name="Path 1" d="M8.716,8.716,0,0" transform="matrix(0.017, 1, -1, 0.017, 19.042, 9.199)" stroke="#707070" stroke-width="1"/>
            <path id="Path_2-3" data-name="Path 2" d="M9.2,0,0,8.232" transform="matrix(0.017, 1, -1, 0.017, 18.881, 0)" stroke="#707070" stroke-width="1"/>
            <path id="Path_4-3" data-name="Path 4" d="M0,0" transform="matrix(-0.883, 0.469, -0.469, -0.883, 15.065, 10.935)" stroke="#707070" stroke-width="1"/>
          </g>
          <g id="portfolio_icon-4" data-name="portfolio icon" transform="translate(63)">
            <line id="Line_3-4" data-name="Line 3" y2="10.168" transform="matrix(0.017, 1, -1, 0.017, 10.327, 9.351)" fill="#fff" stroke="#707070" stroke-width="1"/>
            <line id="Line_1-4" data-name="Line 1" x1="17.916" transform="matrix(0.017, 1, -1, 0.017, 0, 0.33)" fill="#fff" stroke="#707070" stroke-width="1"/>
            <line id="Line_2-4" data-name="Line 2" y1="10.168" transform="matrix(0.017, 1, -1, 0.017, 10.167, 0.152)" fill="#fff" stroke="#707070" stroke-width="1"/>
            <path id="Path_1-4" data-name="Path 1" d="M8.716,8.716,0,0" transform="matrix(0.017, 1, -1, 0.017, 19.042, 9.199)" stroke="#707070" stroke-width="1"/>
            <path id="Path_2-4" data-name="Path 2" d="M9.2,0,0,8.232" transform="matrix(0.017, 1, -1, 0.017, 18.881, 0)" stroke="#707070" stroke-width="1"/>
            <path id="Path_4-4" data-name="Path 4" d="M0,0" transform="matrix(-0.883, 0.469, -0.469, -0.883, 15.065, 10.935)" stroke="#707070" stroke-width="1"/>
          </g>
          <g id="portfolio_icon-5" data-name="portfolio icon" transform="translate(84)">
            <line id="Line_3-5" data-name="Line 3" y2="10.168" transform="matrix(0.017, 1, -1, 0.017, 10.327, 9.351)" fill="#fff" stroke="#707070" stroke-width="1"/>
            <line id="Line_1-5" data-name="Line 1" x1="17.916" transform="matrix(0.017, 1, -1, 0.017, 0, 0.33)" fill="#fff" stroke="#707070" stroke-width="1"/>
            <line id="Line_2-5" data-name="Line 2" y1="10.168" transform="matrix(0.017, 1, -1, 0.017, 10.167, 0.152)" fill="#fff" stroke="#707070" stroke-width="1"/>
            <path id="Path_1-5" data-name="Path 1" d="M8.716,8.716,0,0" transform="matrix(0.017, 1, -1, 0.017, 19.042, 9.199)" stroke="#707070" stroke-width="1"/>
            <path id="Path_2-5" data-name="Path 2" d="M9.2,0,0,8.232" transform="matrix(0.017, 1, -1, 0.017, 18.881, 0)" stroke="#707070" stroke-width="1"/>
            <path id="Path_4-5" data-name="Path 4" d="M0,0" transform="matrix(-0.883, 0.469, -0.469, -0.883, 15.065, 10.935)" stroke="#707070" stroke-width="1"/>
          </g>
          <g id="portfolio_icon-6" data-name="portfolio icon" transform="translate(105)">
            <line id="Line_3-6" data-name="Line 3" y2="10.168" transform="matrix(0.017, 1, -1, 0.017, 10.327, 9.351)" fill="#fff" stroke="#707070" stroke-width="1"/>
            <line id="Line_1-6" data-name="Line 1" x1="17.916" transform="matrix(0.017, 1, -1, 0.017, 0, 0.33)" fill="#fff" stroke="#707070" stroke-width="1"/>
            <line id="Line_2-6" data-name="Line 2" y1="10.168" transform="matrix(0.017, 1, -1, 0.017, 10.167, 0.152)" fill="#fff" stroke="#707070" stroke-width="1"/>
            <path id="Path_1-6" data-name="Path 1" d="M8.716,8.716,0,0" transform="matrix(0.017, 1, -1, 0.017, 19.042, 9.199)" stroke="#707070" stroke-width="1"/>
            <path id="Path_2-6" data-name="Path 2" d="M9.2,0,0,8.232" transform="matrix(0.017, 1, -1, 0.017, 18.881, 0)" stroke="#707070" stroke-width="1"/>
            <path id="Path_4-6" data-name="Path 4" d="M0,0" transform="matrix(-0.883, 0.469, -0.469, -0.883, 15.065, 10.935)" stroke="#707070" stroke-width="1"/>
          </g>
          <g id="portfolio_icon-7" data-name="portfolio icon" transform="translate(126)">
            <line id="Line_3-7" data-name="Line 3" y2="10.168" transform="matrix(0.017, 1, -1, 0.017, 10.327, 9.351)" fill="#fff" stroke="#707070" stroke-width="1"/>
            <line id="Line_1-7" data-name="Line 1" x1="17.916" transform="matrix(0.017, 1, -1, 0.017, 0, 0.33)" fill="#fff" stroke="#707070" stroke-width="1"/>
            <line id="Line_2-7" data-name="Line 2" y1="10.168" transform="matrix(0.017, 1, -1, 0.017, 10.167, 0.152)" fill="#fff" stroke="#707070" stroke-width="1"/>
            <path id="Path_1-7" data-name="Path 1" d="M8.716,8.716,0,0" transform="matrix(0.017, 1, -1, 0.017, 19.042, 9.199)" stroke="#707070" stroke-width="1"/>
            <path id="Path_2-7" data-name="Path 2" d="M9.2,0,0,8.232" transform="matrix(0.017, 1, -1, 0.017, 18.881, 0)" stroke="#707070" stroke-width="1"/>
            <path id="Path_4-7" data-name="Path 4" d="M0,0" transform="matrix(-0.883, 0.469, -0.469, -0.883, 15.065, 10.935)" stroke="#707070" stroke-width="1"/>
          </g>
          <g id="portfolio_icon-8" data-name="portfolio icon" transform="translate(147)">
            <line id="Line_3-8" data-name="Line 3" y2="10.168" transform="matrix(0.017, 1, -1, 0.017, 10.327, 9.351)" fill="#fff" stroke="#707070" stroke-width="1"/>
            <line id="Line_1-8" data-name="Line 1" x1="17.916" transform="matrix(0.017, 1, -1, 0.017, 0, 0.33)" fill="#fff" stroke="#707070" stroke-width="1"/>
            <line id="Line_2-8" data-name="Line 2" y1="10.168" transform="matrix(0.017, 1, -1, 0.017, 10.167, 0.152)" fill="#fff" stroke="#707070" stroke-width="1"/>
            <path id="Path_1-8" data-name="Path 1" d="M8.716,8.716,0,0" transform="matrix(0.017, 1, -1, 0.017, 19.042, 9.199)" stroke="#707070" stroke-width="1"/>
            <path id="Path_2-8" data-name="Path 2" d="M9.2,0,0,8.232" transform="matrix(0.017, 1, -1, 0.017, 18.881, 0)" stroke="#707070" stroke-width="1"/>
            <path id="Path_4-8" data-name="Path 4" d="M0,0" transform="matrix(-0.883, 0.469, -0.469, -0.883, 15.065, 10.935)" stroke="#707070" stroke-width="1"/>
          </g>
          <g id="portfolio_icon-9" data-name="portfolio icon" transform="translate(168)">
            <line id="Line_3-9" data-name="Line 3" y2="10.168" transform="matrix(0.017, 1, -1, 0.017, 10.327, 9.351)" fill="#fff" stroke="#707070" stroke-width="1"/>
            <line id="Line_1-9" data-name="Line 1" x1="17.916" transform="matrix(0.017, 1, -1, 0.017, 0, 0.33)" fill="#fff" stroke="#707070" stroke-width="1"/>
            <line id="Line_2-9" data-name="Line 2" y1="10.168" transform="matrix(0.017, 1, -1, 0.017, 10.167, 0.152)" fill="#fff" stroke="#707070" stroke-width="1"/>
            <path id="Path_1-9" data-name="Path 1" d="M8.716,8.716,0,0" transform="matrix(0.017, 1, -1, 0.017, 19.042, 9.199)" stroke="#707070" stroke-width="1"/>
            <path id="Path_2-9" data-name="Path 2" d="M9.2,0,0,8.232" transform="matrix(0.017, 1, -1, 0.017, 18.881, 0)" stroke="#707070" stroke-width="1"/>
            <path id="Path_4-9" data-name="Path 4" d="M0,0" transform="matrix(-0.883, 0.469, -0.469, -0.883, 15.065, 10.935)" stroke="#707070" stroke-width="1"/>
          </g>
          <g id="portfolio_icon-10" data-name="portfolio icon" transform="translate(189)">
            <line id="Line_3-10" data-name="Line 3" y2="10.168" transform="matrix(0.017, 1, -1, 0.017, 10.327, 9.351)" fill="#fff" stroke="#707070" stroke-width="1"/>
            <line id="Line_1-10" data-name="Line 1" x1="17.916" transform="matrix(0.017, 1, -1, 0.017, 0, 0.33)" fill="#fff" stroke="#707070" stroke-width="1"/>
            <line id="Line_2-10" data-name="Line 2" y1="10.168" transform="matrix(0.017, 1, -1, 0.017, 10.167, 0.152)" fill="#fff" stroke="#707070" stroke-width="1"/>
            <path id="Path_1-10" data-name="Path 1" d="M8.716,8.716,0,0" transform="matrix(0.017, 1, -1, 0.017, 19.042, 9.199)" stroke="#707070" stroke-width="1"/>
            <path id="Path_2-10" data-name="Path 2" d="M9.2,0,0,8.232" transform="matrix(0.017, 1, -1, 0.017, 18.881, 0)" stroke="#707070" stroke-width="1"/>
            <path id="Path_4-10" data-name="Path 4" d="M0,0" transform="matrix(-0.883, 0.469, -0.469, -0.883, 15.065, 10.935)" stroke="#707070" stroke-width="1"/>
          </g>
          <g id="portfolio_icon-11" data-name="portfolio icon" transform="translate(210)">
            <line id="Line_3-11" data-name="Line 3" y2="10.168" transform="matrix(0.017, 1, -1, 0.017, 10.327, 9.351)" fill="#fff" stroke="#707070" stroke-width="1"/>
            <line id="Line_1-11" data-name="Line 1" x1="17.916" transform="matrix(0.017, 1, -1, 0.017, 0, 0.33)" fill="#fff" stroke="#707070" stroke-width="1"/>
            <line id="Line_2-11" data-name="Line 2" y1="10.168" transform="matrix(0.017, 1, -1, 0.017, 10.167, 0.152)" fill="#fff" stroke="#707070" stroke-width="1"/>
            <path id="Path_1-11" data-name="Path 1" d="M8.716,8.716,0,0" transform="matrix(0.017, 1, -1, 0.017, 19.042, 9.199)" stroke="#707070" stroke-width="1"/>
            <path id="Path_2-11" data-name="Path 2" d="M9.2,0,0,8.232" transform="matrix(0.017, 1, -1, 0.017, 18.881, 0)" stroke="#707070" stroke-width="1"/>
            <path id="Path_4-11" data-name="Path 4" d="M0,0" transform="matrix(-0.883, 0.469, -0.469, -0.883, 15.065, 10.935)" stroke="#707070" stroke-width="1"/>
          </g>
          <g id="portfolio_icon-12" data-name="portfolio icon" transform="translate(231)">
            <line id="Line_3-12" data-name="Line 3" y2="10.168" transform="matrix(0.017, 1, -1, 0.017, 10.327, 9.351)" fill="#fff" stroke="#707070" stroke-width="1"/>
            <line id="Line_1-12" data-name="Line 1" x1="17.916" transform="matrix(0.017, 1, -1, 0.017, 0, 0.33)" fill="#fff" stroke="#707070" stroke-width="1"/>
            <line id="Line_2-12" data-name="Line 2" y1="10.168" transform="matrix(0.017, 1, -1, 0.017, 10.167, 0.152)" fill="#fff" stroke="#707070" stroke-width="1"/>
            <path id="Path_1-12" data-name="Path 1" d="M8.716,8.716,0,0" transform="matrix(0.017, 1, -1, 0.017, 19.042, 9.199)" stroke="#707070" stroke-width="1"/>
            <path id="Path_2-12" data-name="Path 2" d="M9.2,0,0,8.232" transform="matrix(0.017, 1, -1, 0.017, 18.881, 0)" stroke="#707070" stroke-width="1"/>
            <path id="Path_4-12" data-name="Path 4" d="M0,0" transform="matrix(-0.883, 0.469, -0.469, -0.883, 15.065, 10.935)" stroke="#707070" stroke-width="1"/>
          </g>
          <g id="portfolio_icon-13" data-name="portfolio icon" transform="translate(252)">
            <line id="Line_3-13" data-name="Line 3" y2="10.168" transform="matrix(0.017, 1, -1, 0.017, 10.327, 9.351)" fill="#fff" stroke="#707070" stroke-width="1"/>
            <line id="Line_1-13" data-name="Line 1" x1="17.916" transform="matrix(0.017, 1, -1, 0.017, 0, 0.33)" fill="#fff" stroke="#707070" stroke-width="1"/>
            <line id="Line_2-13" data-name="Line 2" y1="10.168" transform="matrix(0.017, 1, -1, 0.017, 10.167, 0.152)" fill="#fff" stroke="#707070" stroke-width="1"/>
            <path id="Path_1-13" data-name="Path 1" d="M8.716,8.716,0,0" transform="matrix(0.017, 1, -1, 0.017, 19.042, 9.199)" stroke="#707070" stroke-width="1"/>
            <path id="Path_2-13" data-name="Path 2" d="M9.2,0,0,8.232" transform="matrix(0.017, 1, -1, 0.017, 18.881, 0)" stroke="#707070" stroke-width="1"/>
            <path id="Path_4-13" data-name="Path 4" d="M0,0" transform="matrix(-0.883, 0.469, -0.469, -0.883, 15.065, 10.935)" stroke="#707070" stroke-width="1"/>
          </g>
          <g id="portfolio_icon-14" data-name="portfolio icon" transform="translate(273)">
            <line id="Line_3-14" data-name="Line 3" y2="10.168" transform="matrix(0.017, 1, -1, 0.017, 10.327, 9.351)" fill="#fff" stroke="#707070" stroke-width="1"/>
            <line id="Line_1-14" data-name="Line 1" x1="17.916" transform="matrix(0.017, 1, -1, 0.017, 0, 0.33)" fill="#fff" stroke="#707070" stroke-width="1"/>
            <line id="Line_2-14" data-name="Line 2" y1="10.168" transform="matrix(0.017, 1, -1, 0.017, 10.167, 0.152)" fill="#fff" stroke="#707070" stroke-width="1"/>
            <path id="Path_1-14" data-name="Path 1" d="M8.716,8.716,0,0" transform="matrix(0.017, 1, -1, 0.017, 19.042, 9.199)" stroke="#707070" stroke-width="1"/>
            <path id="Path_2-14" data-name="Path 2" d="M9.2,0,0,8.232" transform="matrix(0.017, 1, -1, 0.017, 18.881, 0)" stroke="#707070" stroke-width="1"/>
            <path id="Path_4-14" data-name="Path 4" d="M0,0" transform="matrix(-0.883, 0.469, -0.469, -0.883, 15.065, 10.935)" stroke="#707070" stroke-width="1"/>
          </g>
          <g id="portfolio_icon-15" data-name="portfolio icon" transform="translate(294)">
            <line id="Line_3-15" data-name="Line 3" y2="10.168" transform="matrix(0.017, 1, -1, 0.017, 10.327, 9.351)" fill="#fff" stroke="#707070" stroke-width="1"/>
            <line id="Line_1-15" data-name="Line 1" x1="17.916" transform="matrix(0.017, 1, -1, 0.017, 0, 0.33)" fill="#fff" stroke="#707070" stroke-width="1"/>
            <line id="Line_2-15" data-name="Line 2" y1="10.168" transform="matrix(0.017, 1, -1, 0.017, 10.167, 0.152)" fill="#fff" stroke="#707070" stroke-width="1"/>
            <path id="Path_1-15" data-name="Path 1" d="M8.716,8.716,0,0" transform="matrix(0.017, 1, -1, 0.017, 19.042, 9.199)" stroke="#707070" stroke-width="1"/>
            <path id="Path_2-15" data-name="Path 2" d="M9.2,0,0,8.232" transform="matrix(0.017, 1, -1, 0.017, 18.881, 0)" stroke="#707070" stroke-width="1"/>
            <path id="Path_4-15" data-name="Path 4" d="M0,0" transform="matrix(-0.883, 0.469, -0.469, -0.883, 15.065, 10.935)" stroke="#707070" stroke-width="1"/>
          </g>
          <g id="portfolio_icon-16" data-name="portfolio icon" transform="translate(315)">
            <line id="Line_3-16" data-name="Line 3" y2="10.168" transform="matrix(0.017, 1, -1, 0.017, 10.327, 9.351)" fill="#fff" stroke="#707070" stroke-width="1"/>
            <line id="Line_1-16" data-name="Line 1" x1="17.916" transform="matrix(0.017, 1, -1, 0.017, 0, 0.33)" fill="#fff" stroke="#707070" stroke-width="1"/>
            <line id="Line_2-16" data-name="Line 2" y1="10.168" transform="matrix(0.017, 1, -1, 0.017, 10.167, 0.152)" fill="#fff" stroke="#707070" stroke-width="1"/>
            <path id="Path_1-16" data-name="Path 1" d="M8.716,8.716,0,0" transform="matrix(0.017, 1, -1, 0.017, 19.042, 9.199)" stroke="#707070" stroke-width="1"/>
            <path id="Path_2-16" data-name="Path 2" d="M9.2,0,0,8.232" transform="matrix(0.017, 1, -1, 0.017, 18.881, 0)" stroke="#707070" stroke-width="1"/>
            <path id="Path_4-16" data-name="Path 4" d="M0,0" transform="matrix(-0.883, 0.469, -0.469, -0.883, 15.065, 10.935)" stroke="#707070" stroke-width="1"/>
          </g>
          <g id="portfolio_icon-17" data-name="portfolio icon" transform="translate(0 24)">
            <line id="Line_3-17" data-name="Line 3" y2="10.168" transform="matrix(0.017, 1, -1, 0.017, 10.327, 9.351)" fill="#fff" stroke="#707070" stroke-width="1"/>
            <line id="Line_1-17" data-name="Line 1" x1="17.916" transform="matrix(0.017, 1, -1, 0.017, 0, 0.33)" fill="#fff" stroke="#707070" stroke-width="1"/>
            <line id="Line_2-17" data-name="Line 2" y1="10.168" transform="matrix(0.017, 1, -1, 0.017, 10.167, 0.152)" fill="#fff" stroke="#707070" stroke-width="1"/>
            <path id="Path_1-17" data-name="Path 1" d="M8.716,8.716,0,0" transform="matrix(0.017, 1, -1, 0.017, 19.042, 9.199)" stroke="#707070" stroke-width="1"/>
            <path id="Path_2-17" data-name="Path 2" d="M9.2,0,0,8.232" transform="matrix(0.017, 1, -1, 0.017, 18.881, 0)" stroke="#707070" stroke-width="1"/>
            <path id="Path_4-17" data-name="Path 4" d="M0,0" transform="matrix(-0.883, 0.469, -0.469, -0.883, 15.065, 10.935)" stroke="#707070" stroke-width="1"/>
          </g>
          <g id="portfolio_icon-18" data-name="portfolio icon" transform="translate(21 24)">
            <line id="Line_3-18" data-name="Line 3" y2="10.168" transform="matrix(0.017, 1, -1, 0.017, 10.327, 9.351)" fill="#fff" stroke="#707070" stroke-width="1"/>
            <line id="Line_1-18" data-name="Line 1" x1="17.916" transform="matrix(0.017, 1, -1, 0.017, 0, 0.33)" fill="#fff" stroke="#707070" stroke-width="1"/>
            <line id="Line_2-18" data-name="Line 2" y1="10.168" transform="matrix(0.017, 1, -1, 0.017, 10.167, 0.152)" fill="#fff" stroke="#707070" stroke-width="1"/>
            <path id="Path_1-18" data-name="Path 1" d="M8.716,8.716,0,0" transform="matrix(0.017, 1, -1, 0.017, 19.042, 9.199)" stroke="#707070" stroke-width="1"/>
            <path id="Path_2-18" data-name="Path 2" d="M9.2,0,0,8.232" transform="matrix(0.017, 1, -1, 0.017, 18.881, 0)" stroke="#707070" stroke-width="1"/>
            <path id="Path_4-18" data-name="Path 4" d="M0,0" transform="matrix(-0.883, 0.469, -0.469, -0.883, 15.065, 10.935)" stroke="#707070" stroke-width="1"/>
          </g>
          <g id="portfolio_icon-19" data-name="portfolio icon" transform="translate(42 24)">
            <line id="Line_3-19" data-name="Line 3" y2="10.168" transform="matrix(0.017, 1, -1, 0.017, 10.327, 9.351)" fill="#fff" stroke="#707070" stroke-width="1"/>
            <line id="Line_1-19" data-name="Line 1" x1="17.916" transform="matrix(0.017, 1, -1, 0.017, 0, 0.33)" fill="#fff" stroke="#707070" stroke-width="1"/>
            <line id="Line_2-19" data-name="Line 2" y1="10.168" transform="matrix(0.017, 1, -1, 0.017, 10.167, 0.152)" fill="#fff" stroke="#707070" stroke-width="1"/>
            <path id="Path_1-19" data-name="Path 1" d="M8.716,8.716,0,0" transform="matrix(0.017, 1, -1, 0.017, 19.042, 9.199)" stroke="#707070" stroke-width="1"/>
            <path id="Path_2-19" data-name="Path 2" d="M9.2,0,0,8.232" transform="matrix(0.017, 1, -1, 0.017, 18.881, 0)" stroke="#707070" stroke-width="1"/>
            <path id="Path_4-19" data-name="Path 4" d="M0,0" transform="matrix(-0.883, 0.469, -0.469, -0.883, 15.065, 10.935)" stroke="#707070" stroke-width="1"/>
          </g>
          <g id="portfolio_icon-20" data-name="portfolio icon" transform="translate(63 24)">
            <line id="Line_3-20" data-name="Line 3" y2="10.168" transform="matrix(0.017, 1, -1, 0.017, 10.327, 9.351)" fill="#fff" stroke="#707070" stroke-width="1"/>
            <line id="Line_1-20" data-name="Line 1" x1="17.916" transform="matrix(0.017, 1, -1, 0.017, 0, 0.33)" fill="#fff" stroke="#707070" stroke-width="1"/>
            <line id="Line_2-20" data-name="Line 2" y1="10.168" transform="matrix(0.017, 1, -1, 0.017, 10.167, 0.152)" fill="#fff" stroke="#707070" stroke-width="1"/>
            <path id="Path_1-20" data-name="Path 1" d="M8.716,8.716,0,0" transform="matrix(0.017, 1, -1, 0.017, 19.042, 9.199)" stroke="#707070" stroke-width="1"/>
            <path id="Path_2-20" data-name="Path 2" d="M9.2,0,0,8.232" transform="matrix(0.017, 1, -1, 0.017, 18.881, 0)" stroke="#707070" stroke-width="1"/>
            <path id="Path_4-20" data-name="Path 4" d="M0,0" transform="matrix(-0.883, 0.469, -0.469, -0.883, 15.065, 10.935)" stroke="#707070" stroke-width="1"/>
          </g>
          <g id="portfolio_icon-21" data-name="portfolio icon" transform="translate(84 24)">
            <line id="Line_3-21" data-name="Line 3" y2="10.168" transform="matrix(0.017, 1, -1, 0.017, 10.327, 9.351)" fill="#fff" stroke="#707070" stroke-width="1"/>
            <line id="Line_1-21" data-name="Line 1" x1="17.916" transform="matrix(0.017, 1, -1, 0.017, 0, 0.33)" fill="#fff" stroke="#707070" stroke-width="1"/>
            <line id="Line_2-21" data-name="Line 2" y1="10.168" transform="matrix(0.017, 1, -1, 0.017, 10.167, 0.152)" fill="#fff" stroke="#707070" stroke-width="1"/>
            <path id="Path_1-21" data-name="Path 1" d="M8.716,8.716,0,0" transform="matrix(0.017, 1, -1, 0.017, 19.042, 9.199)" stroke="#707070" stroke-width="1"/>
            <path id="Path_2-21" data-name="Path 2" d="M9.2,0,0,8.232" transform="matrix(0.017, 1, -1, 0.017, 18.881, 0)" stroke="#707070" stroke-width="1"/>
            <path id="Path_4-21" data-name="Path 4" d="M0,0" transform="matrix(-0.883, 0.469, -0.469, -0.883, 15.065, 10.935)" stroke="#707070" stroke-width="1"/>
          </g>
          <g id="portfolio_icon-22" data-name="portfolio icon" transform="translate(105 24)">
            <line id="Line_3-22" data-name="Line 3" y2="10.168" transform="matrix(0.017, 1, -1, 0.017, 10.327, 9.351)" fill="#fff" stroke="#707070" stroke-width="1"/>
            <line id="Line_1-22" data-name="Line 1" x1="17.916" transform="matrix(0.017, 1, -1, 0.017, 0, 0.33)" fill="#fff" stroke="#707070" stroke-width="1"/>
            <line id="Line_2-22" data-name="Line 2" y1="10.168" transform="matrix(0.017, 1, -1, 0.017, 10.167, 0.152)" fill="#fff" stroke="#707070" stroke-width="1"/>
            <path id="Path_1-22" data-name="Path 1" d="M8.716,8.716,0,0" transform="matrix(0.017, 1, -1, 0.017, 19.042, 9.199)" stroke="#707070" stroke-width="1"/>
            <path id="Path_2-22" data-name="Path 2" d="M9.2,0,0,8.232" transform="matrix(0.017, 1, -1, 0.017, 18.881, 0)" stroke="#707070" stroke-width="1"/>
            <path id="Path_4-22" data-name="Path 4" d="M0,0" transform="matrix(-0.883, 0.469, -0.469, -0.883, 15.065, 10.935)" stroke="#707070" stroke-width="1"/>
          </g>
          <g id="portfolio_icon-23" data-name="portfolio icon" transform="translate(126 24)">
            <line id="Line_3-23" data-name="Line 3" y2="10.168" transform="matrix(0.017, 1, -1, 0.017, 10.327, 9.351)" fill="#fff" stroke="#707070" stroke-width="1"/>
            <line id="Line_1-23" data-name="Line 1" x1="17.916" transform="matrix(0.017, 1, -1, 0.017, 0, 0.33)" fill="#fff" stroke="#707070" stroke-width="1"/>
            <line id="Line_2-23" data-name="Line 2" y1="10.168" transform="matrix(0.017, 1, -1, 0.017, 10.167, 0.152)" fill="#fff" stroke="#707070" stroke-width="1"/>
            <path id="Path_1-23" data-name="Path 1" d="M8.716,8.716,0,0" transform="matrix(0.017, 1, -1, 0.017, 19.042, 9.199)" stroke="#707070" stroke-width="1"/>
            <path id="Path_2-23" data-name="Path 2" d="M9.2,0,0,8.232" transform="matrix(0.017, 1, -1, 0.017, 18.881, 0)" stroke="#707070" stroke-width="1"/>
            <path id="Path_4-23" data-name="Path 4" d="M0,0" transform="matrix(-0.883, 0.469, -0.469, -0.883, 15.065, 10.935)" stroke="#707070" stroke-width="1"/>
          </g>
          <g id="portfolio_icon-24" data-name="portfolio icon" transform="translate(147 24)">
            <line id="Line_3-24" data-name="Line 3" y2="10.168" transform="matrix(0.017, 1, -1, 0.017, 10.327, 9.351)" fill="#fff" stroke="#707070" stroke-width="1"/>
            <line id="Line_1-24" data-name="Line 1" x1="17.916" transform="matrix(0.017, 1, -1, 0.017, 0, 0.33)" fill="#fff" stroke="#707070" stroke-width="1"/>
            <line id="Line_2-24" data-name="Line 2" y1="10.168" transform="matrix(0.017, 1, -1, 0.017, 10.167, 0.152)" fill="#fff" stroke="#707070" stroke-width="1"/>
            <path id="Path_1-24" data-name="Path 1" d="M8.716,8.716,0,0" transform="matrix(0.017, 1, -1, 0.017, 19.042, 9.199)" stroke="#707070" stroke-width="1"/>
            <path id="Path_2-24" data-name="Path 2" d="M9.2,0,0,8.232" transform="matrix(0.017, 1, -1, 0.017, 18.881, 0)" stroke="#707070" stroke-width="1"/>
            <path id="Path_4-24" data-name="Path 4" d="M0,0" transform="matrix(-0.883, 0.469, -0.469, -0.883, 15.065, 10.935)" stroke="#707070" stroke-width="1"/>
          </g>
          <g id="portfolio_icon-25" data-name="portfolio icon" transform="translate(168 24)">
            <line id="Line_3-25" data-name="Line 3" y2="10.168" transform="matrix(0.017, 1, -1, 0.017, 10.327, 9.351)" fill="#fff" stroke="#707070" stroke-width="1"/>
            <line id="Line_1-25" data-name="Line 1" x1="17.916" transform="matrix(0.017, 1, -1, 0.017, 0, 0.33)" fill="#fff" stroke="#707070" stroke-width="1"/>
            <line id="Line_2-25" data-name="Line 2" y1="10.168" transform="matrix(0.017, 1, -1, 0.017, 10.167, 0.152)" fill="#fff" stroke="#707070" stroke-width="1"/>
            <path id="Path_1-25" data-name="Path 1" d="M8.716,8.716,0,0" transform="matrix(0.017, 1, -1, 0.017, 19.042, 9.199)" stroke="#707070" stroke-width="1"/>
            <path id="Path_2-25" data-name="Path 2" d="M9.2,0,0,8.232" transform="matrix(0.017, 1, -1, 0.017, 18.881, 0)" stroke="#707070" stroke-width="1"/>
            <path id="Path_4-25" data-name="Path 4" d="M0,0" transform="matrix(-0.883, 0.469, -0.469, -0.883, 15.065, 10.935)" stroke="#707070" stroke-width="1"/>
          </g>
          <g id="portfolio_icon-26" data-name="portfolio icon" transform="translate(189 24)">
            <line id="Line_3-26" data-name="Line 3" y2="10.168" transform="matrix(0.017, 1, -1, 0.017, 10.327, 9.351)" fill="#fff" stroke="#707070" stroke-width="1"/>
            <line id="Line_1-26" data-name="Line 1" x1="17.916" transform="matrix(0.017, 1, -1, 0.017, 0, 0.33)" fill="#fff" stroke="#707070" stroke-width="1"/>
            <line id="Line_2-26" data-name="Line 2" y1="10.168" transform="matrix(0.017, 1, -1, 0.017, 10.167, 0.152)" fill="#fff" stroke="#707070" stroke-width="1"/>
            <path id="Path_1-26" data-name="Path 1" d="M8.716,8.716,0,0" transform="matrix(0.017, 1, -1, 0.017, 19.042, 9.199)" stroke="#707070" stroke-width="1"/>
            <path id="Path_2-26" data-name="Path 2" d="M9.2,0,0,8.232" transform="matrix(0.017, 1, -1, 0.017, 18.881, 0)" stroke="#707070" stroke-width="1"/>
            <path id="Path_4-26" data-name="Path 4" d="M0,0" transform="matrix(-0.883, 0.469, -0.469, -0.883, 15.065, 10.935)" stroke="#707070" stroke-width="1"/>
          </g>
          <g id="portfolio_icon-27" data-name="portfolio icon" transform="translate(210 24)">
            <line id="Line_3-27" data-name="Line 3" y2="10.168" transform="matrix(0.017, 1, -1, 0.017, 10.327, 9.351)" fill="#fff" stroke="#707070" stroke-width="1"/>
            <line id="Line_1-27" data-name="Line 1" x1="17.916" transform="matrix(0.017, 1, -1, 0.017, 0, 0.33)" fill="#fff" stroke="#707070" stroke-width="1"/>
            <line id="Line_2-27" data-name="Line 2" y1="10.168" transform="matrix(0.017, 1, -1, 0.017, 10.167, 0.152)" fill="#fff" stroke="#707070" stroke-width="1"/>
            <path id="Path_1-27" data-name="Path 1" d="M8.716,8.716,0,0" transform="matrix(0.017, 1, -1, 0.017, 19.042, 9.199)" stroke="#707070" stroke-width="1"/>
            <path id="Path_2-27" data-name="Path 2" d="M9.2,0,0,8.232" transform="matrix(0.017, 1, -1, 0.017, 18.881, 0)" stroke="#707070" stroke-width="1"/>
            <path id="Path_4-27" data-name="Path 4" d="M0,0" transform="matrix(-0.883, 0.469, -0.469, -0.883, 15.065, 10.935)" stroke="#707070" stroke-width="1"/>
          </g>
          <g id="portfolio_icon-28" data-name="portfolio icon" transform="translate(231 24)">
            <line id="Line_3-28" data-name="Line 3" y2="10.168" transform="matrix(0.017, 1, -1, 0.017, 10.327, 9.351)" fill="#fff" stroke="#707070" stroke-width="1"/>
            <line id="Line_1-28" data-name="Line 1" x1="17.916" transform="matrix(0.017, 1, -1, 0.017, 0, 0.33)" fill="#fff" stroke="#707070" stroke-width="1"/>
            <line id="Line_2-28" data-name="Line 2" y1="10.168" transform="matrix(0.017, 1, -1, 0.017, 10.167, 0.152)" fill="#fff" stroke="#707070" stroke-width="1"/>
            <path id="Path_1-28" data-name="Path 1" d="M8.716,8.716,0,0" transform="matrix(0.017, 1, -1, 0.017, 19.042, 9.199)" stroke="#707070" stroke-width="1"/>
            <path id="Path_2-28" data-name="Path 2" d="M9.2,0,0,8.232" transform="matrix(0.017, 1, -1, 0.017, 18.881, 0)" stroke="#707070" stroke-width="1"/>
            <path id="Path_4-28" data-name="Path 4" d="M0,0" transform="matrix(-0.883, 0.469, -0.469, -0.883, 15.065, 10.935)" stroke="#707070" stroke-width="1"/>
          </g>
          <g id="portfolio_icon-29" data-name="portfolio icon" transform="translate(252 24)">
            <line id="Line_3-29" data-name="Line 3" y2="10.168" transform="matrix(0.017, 1, -1, 0.017, 10.327, 9.351)" fill="#fff" stroke="#707070" stroke-width="1"/>
            <line id="Line_1-29" data-name="Line 1" x1="17.916" transform="matrix(0.017, 1, -1, 0.017, 0, 0.33)" fill="#fff" stroke="#707070" stroke-width="1"/>
            <line id="Line_2-29" data-name="Line 2" y1="10.168" transform="matrix(0.017, 1, -1, 0.017, 10.167, 0.152)" fill="#fff" stroke="#707070" stroke-width="1"/>
            <path id="Path_1-29" data-name="Path 1" d="M8.716,8.716,0,0" transform="matrix(0.017, 1, -1, 0.017, 19.042, 9.199)" stroke="#707070" stroke-width="1"/>
            <path id="Path_2-29" data-name="Path 2" d="M9.2,0,0,8.232" transform="matrix(0.017, 1, -1, 0.017, 18.881, 0)" stroke="#707070" stroke-width="1"/>
            <path id="Path_4-29" data-name="Path 4" d="M0,0" transform="matrix(-0.883, 0.469, -0.469, -0.883, 15.065, 10.935)" stroke="#707070" stroke-width="1"/>
          </g>
          <g id="portfolio_icon-30" data-name="portfolio icon" transform="translate(273 24)">
            <line id="Line_3-30" data-name="Line 3" y2="10.168" transform="matrix(0.017, 1, -1, 0.017, 10.327, 9.351)" fill="#fff" stroke="#707070" stroke-width="1"/>
            <line id="Line_1-30" data-name="Line 1" x1="17.916" transform="matrix(0.017, 1, -1, 0.017, 0, 0.33)" fill="#fff" stroke="#707070" stroke-width="1"/>
            <line id="Line_2-30" data-name="Line 2" y1="10.168" transform="matrix(0.017, 1, -1, 0.017, 10.167, 0.152)" fill="#fff" stroke="#707070" stroke-width="1"/>
            <path id="Path_1-30" data-name="Path 1" d="M8.716,8.716,0,0" transform="matrix(0.017, 1, -1, 0.017, 19.042, 9.199)" stroke="#707070" stroke-width="1"/>
            <path id="Path_2-30" data-name="Path 2" d="M9.2,0,0,8.232" transform="matrix(0.017, 1, -1, 0.017, 18.881, 0)" stroke="#707070" stroke-width="1"/>
            <path id="Path_4-30" data-name="Path 4" d="M0,0" transform="matrix(-0.883, 0.469, -0.469, -0.883, 15.065, 10.935)" stroke="#707070" stroke-width="1"/>
          </g>
          <g id="portfolio_icon-31" data-name="portfolio icon" transform="translate(294 24)">
            <line id="Line_3-31" data-name="Line 3" y2="10.168" transform="matrix(0.017, 1, -1, 0.017, 10.327, 9.351)" fill="#fff" stroke="#707070" stroke-width="1"/>
            <line id="Line_1-31" data-name="Line 1" x1="17.916" transform="matrix(0.017, 1, -1, 0.017, 0, 0.33)" fill="#fff" stroke="#707070" stroke-width="1"/>
            <line id="Line_2-31" data-name="Line 2" y1="10.168" transform="matrix(0.017, 1, -1, 0.017, 10.167, 0.152)" fill="#fff" stroke="#707070" stroke-width="1"/>
            <path id="Path_1-31" data-name="Path 1" d="M8.716,8.716,0,0" transform="matrix(0.017, 1, -1, 0.017, 19.042, 9.199)" stroke="#707070" stroke-width="1"/>
            <path id="Path_2-31" data-name="Path 2" d="M9.2,0,0,8.232" transform="matrix(0.017, 1, -1, 0.017, 18.881, 0)" stroke="#707070" stroke-width="1"/>
            <path id="Path_4-31" data-name="Path 4" d="M0,0" transform="matrix(-0.883, 0.469, -0.469, -0.883, 15.065, 10.935)" stroke="#707070" stroke-width="1"/>
          </g>
          <g id="portfolio_icon-32" data-name="portfolio icon" transform="translate(315 24)">
            <line id="Line_3-32" data-name="Line 3" y2="10.168" transform="matrix(0.017, 1, -1, 0.017, 10.327, 9.351)" fill="#fff" stroke="#707070" stroke-width="1"/>
            <line id="Line_1-32" data-name="Line 1" x1="17.916" transform="matrix(0.017, 1, -1, 0.017, 0, 0.33)" fill="#fff" stroke="#707070" stroke-width="1"/>
            <line id="Line_2-32" data-name="Line 2" y1="10.168" transform="matrix(0.017, 1, -1, 0.017, 10.167, 0.152)" fill="#fff" stroke="#707070" stroke-width="1"/>
            <path id="Path_1-32" data-name="Path 1" d="M8.716,8.716,0,0" transform="matrix(0.017, 1, -1, 0.017, 19.042, 9.199)" stroke="#707070" stroke-width="1"/>
            <path id="Path_2-32" data-name="Path 2" d="M9.2,0,0,8.232" transform="matrix(0.017, 1, -1, 0.017, 18.881, 0)" stroke="#707070" stroke-width="1"/>
            <path id="Path_4-32" data-name="Path 4" d="M0,0" transform="matrix(-0.883, 0.469, -0.469, -0.883, 15.065, 10.935)" stroke="#707070" stroke-width="1"/>
          </g>
        </g>
      </g>
    </g>
  </g>
</svg>
